<?xml version="1.0" encoding="utf-8"?>
<!-- Generator: Adobe Illustrator 27.5.0, SVG Export Plug-In . SVG Version: 6.00 Build 0)  -->
<svg version="1.1" xmlns="http://www.w3.org/2000/svg" xmlns:xlink="http://www.w3.org/1999/xlink" x="0px" y="0px"
	 viewBox="0 0 2200 2200" style="enable-background:new 0 0 2200 2200;" xml:space="preserve">
<g id="background">
	<rect style="fill:#FFFFFF;" width="2200" height="2200"/>
</g>
<g id="Objects">
	<path style="fill:#F4B23D;" d="M1927.317,1054.792c-63.412,301.248-330.699,527.391-650.811,527.391
		c-366.778,0-665.084-298.305-665.084-665.084c0-320.111,226.143-587.399,527.391-650.811c12.918-2.719,20.043,14.541,8.951,21.699
		c-151.246,97.596-251.381,267.601-251.381,460.991c-0.001,302.903,245.342,548.245,548.244,548.245
		c193.39,0,363.395-100.135,460.991-251.381C1912.776,1034.749,1930.036,1041.874,1927.317,1054.792z"/>
	<path style="fill:#F4B23D;" d="M1491.855,565.276c-131.511,15.564-144.128,28.181-159.692,159.692
		c-15.564-131.511-28.181-144.128-159.692-159.692c131.511-15.564,144.128-28.181,159.692-159.692
		C1347.727,537.095,1360.344,549.712,1491.855,565.276z"/>
	<path style="fill:#F4B23D;" d="M501.591,1100.75c-131.511,15.564-144.128,28.181-159.692,159.692
		c-15.564-131.511-28.181-144.128-159.692-159.692c131.511-15.564,144.128-28.181,159.692-159.692
		C357.463,1072.569,370.08,1085.186,501.591,1100.75z"/>
	<path style="fill:#F4B23D;" d="M2017.793,1585.006c-131.511,15.564-144.128,28.181-159.692,159.692
		c-15.564-131.511-28.181-144.128-159.692-159.692c131.511-15.564,144.128-28.181,159.692-159.692
		C1873.665,1556.825,1886.282,1569.442,2017.793,1585.006z"/>
	<path style="fill:#F4B23D;" d="M941.808,1774.308C810.297,1789.872,797.68,1802.489,782.116,1934
		c-15.564-131.511-28.181-144.128-159.692-159.692c131.511-15.564,144.128-28.181,159.692-159.692
		C797.68,1746.127,810.297,1758.744,941.808,1774.308z"/>
	<path style="fill:#F4B23D;" d="M1829.098,475.982c-46.945,5.556-51.449,10.06-57.005,57.005
		c-5.556-46.945-10.06-51.449-57.005-57.005c46.945-5.556,51.449-10.06,57.005-57.005
		C1777.649,465.923,1782.153,470.427,1829.098,475.982z"/>
	<path style="fill:#F4B23D;" d="M1443.35,1742.769c-46.945,5.556-51.449,10.06-57.005,57.005
		c-5.556-46.945-10.06-51.449-57.005-57.005c46.945-5.556,51.449-10.06,57.005-57.005
		C1391.901,1732.71,1396.405,1737.213,1443.35,1742.769z"/>
	<path style="fill:#F4B23D;" d="M1382.612,945.37c-85.911,10.167-94.154,18.41-104.321,104.321
		c-10.167-85.911-18.41-94.154-104.321-104.321c85.911-10.167,94.154-18.41,104.321-104.321
		C1288.459,926.961,1296.701,935.203,1382.612,945.37z"/>
	<path style="fill:#F4B23D;" d="M1754.377,834.646c-85.911,10.167-94.154,18.41-104.321,104.321
		c-10.167-85.911-18.41-94.154-104.321-104.321c85.911-10.167,94.154-18.41,104.321-104.321
		C1660.224,816.237,1668.466,824.479,1754.377,834.646z"/>
	<path style="fill:#F4B23D;" d="M595.35,612.611c-64.586,7.644-70.782,13.84-78.426,78.426
		c-7.644-64.586-13.84-70.782-78.426-78.426c64.586-7.643,70.782-13.84,78.426-78.426
		C524.567,598.771,530.764,604.967,595.35,612.611z"/>
	<path style="fill:#F4B23D;" d="M679.874,1460.897c-64.586,7.644-70.782,13.84-78.426,78.426
		c-7.644-64.586-13.84-70.782-78.426-78.426c64.586-7.644,70.782-13.84,78.426-78.426
		C609.091,1447.058,615.288,1453.254,679.874,1460.897z"/>
</g>
</svg>
